<svg width="29" height="29" version="1.1" id="Capa_1" xmlns="http://www.w3.org/2000/svg" xmlns:xlink="http://www.w3.org/1999/xlink" x="0px" y="0px" viewBox="0 0 355 355" style="enable-background:new 0 0 355 355;" xml:space="preserve">
<path d="M295,0H60C48.954,0,40,8.954,40,20v315c0,11.046,8.954,20,20,20h235c11.046,0,20-8.954,20-20V20C315,8.954,306.046,0,295,0z M79,45c0-4.418,3.582-8,8-8h182c4.418,0,8,3.582,8,8v124c0,4.419-3.582,8-8,8H87c-4.418,0-8-3.581-8-8V45z M174,263.06 c0,6.583-5.324,11.94-11.867,11.94h-18.072c-2.201,0-4.061,1.859-4.061,4.06v18.072c0,6.544-5.356,11.867-11.939,11.867h-5.904 c-6.703,0-12.157-5.323-12.157-11.867V279.06c0-2.239-1.724-4.06-3.843-4.06h-19.29C80.324,275,75,269.644,75,263.06v-5.904 C75,250.453,80.324,245,86.867,245h19.29c2.191,0,3.843-1.652,3.843-3.844v-19.289c0-6.544,5.454-11.867,12.157-11.867h5.904 c6.583,0,11.939,5.323,11.939,11.867v19.289c0,2.119,1.822,3.844,4.061,3.844h18.072c6.544,0,11.867,5.453,11.867,12.156V263.06zM207.908,235.038c0-11.97,9.737-21.707,21.706-21.707c11.969,0,21.706,9.737,21.706,21.707c0,11.969-9.737,21.706-21.706,21.706 C217.645,256.744,207.908,247.007,207.908,235.038z M262.614,307.744c-11.969,0-21.706-9.737-21.706-21.706  c0-11.97,9.737-21.707,21.706-21.707c11.969,0,21.707,9.737,21.707,21.707C284.321,298.007,274.583,307.744,262.614,307.744z"/>
</svg>