<svg width="30" height="30" version="1.1" id="Capa_1" xmlns="http://www.w3.org/2000/svg" xmlns:xlink="http://www.w3.org/1999/xlink" x="0px" y="0px" viewBox="0 0 363.815 363.815" style="enable-background:new 0 0 363.815 363.815;" xml:space="preserve">
<path d="M317.504,156.35c0.385-1.329,0.401-2.729,0.401-4.181v-15.546c0-36.782-13.888-71.165-39.472-96.812 C252.826,14.139,218.574,0,181.805,0c-36.77,0-70.871,14.139-96.479,39.811C59.743,65.458,45.905,99.84,45.905,136.623v15.546 c0,1.453,0.016,2.852,0.401,4.181C22.862,158.208,4.13,183.206,4.13,213.675c0,30.607,18.743,55.701,42.335,57.359 c6.307,8.499,16.481,13.663,27.314,13.663c18.832,0,34.127-15.331,34.127-34.175v-73.694c0-18.258-14-33.218-32-34.131v-6.074 C75.905,76.834,122.24,30,181.906,30c59.665,0,105.999,46.834,105.999,106.623v6.074c-18,0.916-32,15.875-32,34.131v73.694 c0,12.325,6.556,23.144,16.36,29.157c-11.172,16.436-26.875,29.44-45.461,37.375c-5.086-5.667-12.461-9.24-20.657-9.24h-38.484 c-15.306,0-27.758,12.452-27.758,27.758v0.484c0,15.306,12.452,27.758,27.758,27.758h38.484c11.261,0,20.97-6.744,25.319-16.402 c18.377-6.683,35.165-17.281,49.297-31.378c10.526-10.499,19.109-22.47,25.577-35.473c4.312-2.328,8.113-5.558,11.059-9.527 c23.591-1.662,42.285-26.754,42.285-57.359C359.684,183.204,340.952,158.206,317.504,156.35z"/>
</svg>
